#define arrow-down-24x24_width 24
#define arrow-down-24x24_height 24
static unsigned char arrow-down-24x24_bits[] = {
   0x00, 0x00, 0x00, 0x00, 0x00, 0x00, 0x1c, 0x00, 0x00, 0x3c, 0x00, 0x00,
   0x7c, 0x00, 0x00, 0xf8, 0x00, 0x00, 0xf0, 0x01, 0x20, 0xe0, 0x03, 0x30,
   0xc0, 0x07, 0x38, 0x80, 0x0f, 0x38, 0x00, 0x1f, 0x38, 0x00, 0x3e, 0x38,
   0x00, 0x7c, 0x38, 0x00, 0xf8, 0x38, 0x00, 0xf0, 0x39, 0x00, 0xe0, 0x3b,
   0x00, 0xc0, 0x3f, 0x00, 0x80, 0x3f, 0x00, 0x00, 0x3f, 0x00, 0xff, 0x3f,
   0x80, 0xff, 0x3f, 0xc0, 0xff, 0x3f, 0x00, 0x00, 0x00, 0x00, 0x00, 0x00};
