#define arrow-right-up-24x24_width 24
#define arrow-right-up-24x24_height 24
static unsigned char arrow-right-up-24x24_bits[] = {
   0x00, 0x00, 0x00, 0x00, 0x00, 0x00, 0x00, 0xc0, 0x01, 0x00, 0xc0, 0x03,
   0x00, 0x00, 0x0f, 0x00, 0x00, 0x1c, 0x00, 0xfe, 0x3f, 0x00, 0xfe, 0x7f,
   0x00, 0xfe, 0x3f, 0x00, 0x0e, 0x1c, 0x00, 0x0e, 0x0f, 0x00, 0xce, 0x03,
   0x00, 0xce, 0x01, 0x00, 0x0e, 0x00, 0x00, 0x0e, 0x00, 0x00, 0x0e, 0x00,
   0x00, 0x0e, 0x00, 0x00, 0x0e, 0x00, 0x00, 0x0e, 0x00, 0xfe, 0x0f, 0x00,
   0xfe, 0x0f, 0x00, 0xfe, 0x0f, 0x00, 0x00, 0x00, 0x00, 0x00, 0x00, 0x00};
