#define degree_18x24_width 18
#define degree_18x24_height 24
static unsigned char degree_18x24_bits[] = {
   0x00, 0x00, 0x00, 0x00, 0x00, 0x00, 0xe0, 0x00, 0x00, 0xf8, 0x03, 0x00,
   0x18, 0x03, 0x00, 0x0c, 0x06, 0x00, 0x0c, 0x06, 0x00, 0x0c, 0x06, 0x00,
   0x18, 0x03, 0x00, 0xf8, 0x03, 0x00, 0xe0, 0x00, 0x00, 0x00, 0x00, 0x00,
   0x00, 0x00, 0x00, 0x00, 0x00, 0x00, 0x00, 0x00, 0x00, 0x00, 0x00, 0x00,
   0x00, 0x00, 0x00, 0x00, 0x00, 0x00, 0x00, 0x00, 0x00, 0x00, 0x00, 0x00,
   0x00, 0x00, 0x00, 0x00, 0x00, 0x00, 0x00, 0x00, 0x00, 0x00, 0x00, 0x00};
