#define moon-full-18x24_width 18
#define moon-full-18x24_height 24
static unsigned char moon-full-18x24_bits[] = {
   0x00, 0x00, 0x00, 0x00, 0x00, 0x00, 0x00, 0x00, 0x00, 0x00, 0x00, 0x00,
   0x80, 0x07, 0x00, 0xe0, 0x1f, 0x00, 0xf8, 0x7f, 0x00, 0xf8, 0x7f, 0x00,
   0xfc, 0xff, 0x00, 0xfc, 0xff, 0x00, 0xfe, 0xff, 0x01, 0xfe, 0xff, 0x01,
   0xfe, 0xff, 0x01, 0xfe, 0xff, 0x01, 0xfc, 0xff, 0x00, 0xfc, 0xff, 0x00,
   0xf8, 0x7f, 0x00, 0xf8, 0x7f, 0x00, 0xe0, 0x1f, 0x00, 0x80, 0x07, 0x00,
   0x00, 0x00, 0x00, 0x00, 0x00, 0x00, 0x00, 0x00, 0x00, 0x00, 0x00, 0x00};
