#define moon_quarter_dec_width 18
#define moon_quarter_dec_height 24
static unsigned char moon_quarter_dec_bits[] = {
   0xff, 0xff, 0x03, 0xff, 0xff, 0x03, 0xff, 0xff, 0x03, 0xff, 0xff, 0x03,
   0x9f, 0xff, 0x03, 0xc7, 0xff, 0x03, 0xe3, 0xff, 0x03, 0xf3, 0xff, 0x03,
   0xf1, 0xff, 0x03, 0xf1, 0xff, 0x03, 0xf1, 0xff, 0x03, 0xf1, 0xff, 0x03,
   0xf1, 0xff, 0x03, 0xf1, 0xff, 0x03, 0xf1, 0xff, 0x03, 0xf1, 0xff, 0x03,
   0xf3, 0xff, 0x03, 0xe3, 0xff, 0x03, 0xc7, 0xff, 0x03, 0x9f, 0xff, 0x03,
   0xff, 0xff, 0x03, 0xff, 0xff, 0x03, 0xff, 0xff, 0x03, 0xff, 0xff, 0x03};
