#define moon-half-desc-18x24_width 18
#define moon-half-desc-18x24_height 24
static unsigned char moon-half-desc-18x24_bits[] = {
   0x00, 0x00, 0x00, 0x00, 0x00, 0x00, 0x00, 0x00, 0x00, 0x00, 0x00, 0x00,
   0x80, 0x07, 0x00, 0xe0, 0x19, 0x00, 0xf8, 0x61, 0x00, 0xf8, 0x41, 0x00,
   0xfc, 0x81, 0x00, 0xfc, 0x81, 0x00, 0xfe, 0x01, 0x01, 0xfe, 0x01, 0x01,
   0xfe, 0x01, 0x01, 0xfe, 0x01, 0x01, 0xfc, 0x81, 0x00, 0xfc, 0xc1, 0x00,
   0xf8, 0x41, 0x00, 0xf8, 0x61, 0x00, 0xe0, 0x19, 0x00, 0x80, 0x07, 0x00,
   0x00, 0x00, 0x00, 0x00, 0x00, 0x00, 0x00, 0x00, 0x00, 0x00, 0x00, 0x00};
