#define moon_half_inc_width 18
#define moon_half_inc_height 24
static unsigned char moon_half_inc_bits[] = {
   0xff, 0xff, 0x03, 0xff, 0xff, 0x03, 0xff, 0xff, 0x03, 0xff, 0xff, 0x03,
   0xff, 0xe1, 0x03, 0xff, 0x81, 0x03, 0xff, 0x01, 0x03, 0xff, 0x01, 0x03,
   0xff, 0x01, 0x02, 0xff, 0x01, 0x02, 0xff, 0x01, 0x02, 0xff, 0x01, 0x02,
   0xff, 0x01, 0x02, 0xff, 0x01, 0x02, 0xff, 0x01, 0x02, 0xff, 0x01, 0x02,
   0xff, 0x01, 0x03, 0xff, 0x01, 0x03, 0xff, 0x81, 0x03, 0xff, 0xe1, 0x03,
   0xff, 0xff, 0x03, 0xff, 0xff, 0x03, 0xff, 0xff, 0x03, 0xff, 0xff, 0x03};
