#define moon-quarter-desc-18x24_width 18
#define moon-quarter-desc-18x24_height 24
static unsigned char moon-quarter-desc-18x24_bits[] = {
   0x00, 0x00, 0x00, 0x00, 0x00, 0x00, 0x00, 0x00, 0x00, 0x00, 0x00, 0x00,
   0x80, 0x07, 0x00, 0xe0, 0x1d, 0x00, 0xf8, 0x61, 0x00, 0x78, 0x40, 0x00,
   0x3c, 0x80, 0x00, 0x3c, 0x80, 0x00, 0x1e, 0x00, 0x01, 0x1e, 0x00, 0x01,
   0x1e, 0x00, 0x01, 0x1e, 0x00, 0x01, 0x3c, 0x80, 0x00, 0x3c, 0x80, 0x00,
   0x78, 0x40, 0x00, 0xf8, 0x61, 0x00, 0xe0, 0x19, 0x00, 0x80, 0x07, 0x00,
   0x00, 0x00, 0x00, 0x00, 0x00, 0x00, 0x00, 0x00, 0x00, 0x00, 0x00, 0x00};
