#define moon-quarter-asc-18x24_width 18
#define moon-quarter-asc-18x24_height 24
static unsigned char moon-quarter-asc-18x24_bits[] = {
   0x00, 0x00, 0x00, 0x00, 0x00, 0x00, 0x00, 0x00, 0x00, 0x00, 0x00, 0x00,
   0x80, 0x07, 0x00, 0x60, 0x1e, 0x00, 0x18, 0x7e, 0x00, 0x08, 0x78, 0x00,
   0x04, 0xf0, 0x00, 0x04, 0xf0, 0x00, 0x02, 0xe0, 0x01, 0x02, 0xe0, 0x01,
   0x02, 0xe0, 0x01, 0x02, 0xe0, 0x01, 0x04, 0xf0, 0x00, 0x04, 0xf0, 0x00,
   0x08, 0x78, 0x00, 0x18, 0x7c, 0x00, 0x60, 0x1e, 0x00, 0x80, 0x07, 0x00,
   0x00, 0x00, 0x00, 0x00, 0x00, 0x00, 0x00, 0x00, 0x00, 0x00, 0x00, 0x00};
