#define moon_half_dec_width 18
#define moon_half_dec_height 24
static unsigned char moon_half_dec_bits[] = {
   0xff, 0xff, 0x03, 0xff, 0xff, 0x03, 0xff, 0xff, 0x03, 0xff, 0xff, 0x03,
   0x1f, 0xfe, 0x03, 0x07, 0xfe, 0x03, 0x03, 0xfe, 0x03, 0x03, 0xfe, 0x03,
   0x01, 0xfe, 0x03, 0x01, 0xfe, 0x03, 0x01, 0xfe, 0x03, 0x01, 0xfe, 0x03,
   0x01, 0xfe, 0x03, 0x01, 0xfe, 0x03, 0x01, 0xfe, 0x03, 0x01, 0xfe, 0x03,
   0x03, 0xfe, 0x03, 0x03, 0xfe, 0x03, 0x07, 0xfe, 0x03, 0x1f, 0xfe, 0x03,
   0xff, 0xff, 0x03, 0xff, 0xff, 0x03, 0xff, 0xff, 0x03, 0xff, 0xff, 0x03};
