#define temp-18x24_width 18
#define temp-18x24_height 24
static unsigned char temp-18x24_bits[] = {
   0x00, 0x00, 0x00, 0x00, 0x03, 0x00, 0x80, 0x07, 0x00, 0xc0, 0x08, 0x00,
   0x40, 0x0e, 0x00, 0x40, 0x0e, 0x00, 0x40, 0x08, 0x00, 0x40, 0x0e, 0x00,
   0x40, 0x0e, 0x00, 0x40, 0x08, 0x00, 0x40, 0x0e, 0x00, 0x40, 0x0e, 0x00,
   0x40, 0x08, 0x00, 0x40, 0x0e, 0x00, 0x40, 0x0e, 0x00, 0x60, 0x18, 0x00,
   0x60, 0x1c, 0x00, 0x60, 0x1c, 0x00, 0x60, 0x1c, 0x00, 0x60, 0x1c, 0x00,
   0xe0, 0x1c, 0x00, 0xc0, 0x0f, 0x00, 0x80, 0x07, 0x00, 0x00, 0x00, 0x00};
