#define arrow_right_width 18
#define arrow_right_height 24
static unsigned char arrow_right_bits[] = {
   0x00, 0x00, 0x00, 0x00, 0x00, 0x00, 0x00, 0x00, 0x00, 0x00, 0x00, 0x00,
   0x00, 0x00, 0x00, 0x00, 0x00, 0x00, 0xc0, 0x00, 0x00, 0xc0, 0x03, 0x00,
   0x00, 0x0f, 0x00, 0x00, 0x3f, 0x00, 0xfe, 0xff, 0x00, 0xfe, 0xff, 0x01,
   0xfe, 0xff, 0x00, 0x00, 0x3f, 0x00, 0x00, 0x0f, 0x00, 0xc0, 0x03, 0x00,
   0xc0, 0x00, 0x00, 0x00, 0x00, 0x00, 0x00, 0x00, 0x00, 0x00, 0x00, 0x00,
   0x00, 0x00, 0x00, 0x00, 0x00, 0x00, 0x00, 0x00, 0x00, 0x00, 0x00, 0x00};
