#define arrow_up_width 18
#define arrow_up_height 24
static unsigned char arrow_up_bits[] = {
   0x00, 0x00, 0x00, 0x00, 0x00, 0x00, 0x00, 0xe0, 0x00, 0x00, 0xfe, 0x00,
   0xe0, 0xff, 0x00, 0xe0, 0xff, 0x00, 0xe0, 0xff, 0x00, 0x00, 0xfe, 0x00,
   0x00, 0xfe, 0x00, 0x00, 0xff, 0x00, 0x00, 0xe7, 0x00, 0x80, 0xe7, 0x00,
   0x80, 0xe3, 0x00, 0xc0, 0x01, 0x00, 0xe0, 0x01, 0x00, 0xe0, 0x00, 0x00,
   0x70, 0x00, 0x00, 0x78, 0x00, 0x00, 0x38, 0x00, 0x00, 0x1c, 0x00, 0x00,
   0x1c, 0x00, 0x00, 0x0c, 0x00, 0x00, 0x00, 0x00, 0x00, 0x00, 0x00, 0x00};
