#define arrow-right-2-24x24_width 24
#define arrow-right-2-24x24_height 24
static unsigned char arrow-right-2-24x24_bits[] = {
   0x00, 0x00, 0x00, 0x00, 0x00, 0x00, 0x00, 0x0f, 0x00, 0x00, 0x1f, 0x00,
   0x00, 0x7e, 0x00, 0x00, 0xfe, 0x01, 0x00, 0xf8, 0x03, 0x00, 0xe0, 0x0f,
   0x00, 0x80, 0x0f, 0x00, 0x00, 0x1e, 0xfe, 0xff, 0x3f, 0xfe, 0xff, 0x7f,
   0xfe, 0xff, 0x7f, 0xfe, 0xff, 0x3f, 0x00, 0x00, 0x1e, 0x00, 0x80, 0x0f,
   0x00, 0xe0, 0x0f, 0x00, 0xf8, 0x03, 0x00, 0xfe, 0x01, 0x00, 0x7e, 0x00,
   0x00, 0x1f, 0x00, 0x00, 0x0f, 0x00, 0x00, 0x00, 0x00, 0x00, 0x00, 0x00};
