#define arrow_right_down_width 18
#define arrow_right_down_height 24
static unsigned char arrow_right_down_bits[] = {
   0x00, 0x00, 0x00, 0x00, 0x00, 0x00, 0x3e, 0x00, 0x00, 0x3e, 0x00, 0x00,
   0x3e, 0x00, 0x00, 0x38, 0x00, 0x00, 0x38, 0x00, 0x00, 0x38, 0x00, 0x00,
   0x38, 0x00, 0x00, 0x38, 0x00, 0x00, 0x38, 0x00, 0x00, 0x38, 0x07, 0x00,
   0x38, 0x1f, 0x00, 0x38, 0x3c, 0x00, 0x38, 0x70, 0x00, 0xf8, 0xff, 0x00,
   0xf8, 0xff, 0x01, 0xf8, 0xff, 0x00, 0x00, 0x70, 0x00, 0x00, 0x3c, 0x00,
   0x00, 0x0f, 0x00, 0x00, 0x07, 0x00, 0x00, 0x00, 0x00, 0x00, 0x00, 0x00};
