#define moon_quarter_inc_width 18
#define moon_quarter_inc_height 24
static unsigned char moon_quarter_inc_bits[] = {
   0xff, 0xff, 0x03, 0xff, 0xff, 0x03, 0xff, 0xff, 0x03, 0xff, 0xff, 0x03,
   0xff, 0xe7, 0x03, 0xff, 0x8f, 0x03, 0xff, 0x1f, 0x03, 0xff, 0x3f, 0x03,
   0xff, 0x3f, 0x02, 0xff, 0x3f, 0x02, 0xff, 0x3f, 0x02, 0xff, 0x3f, 0x02,
   0xff, 0x3f, 0x02, 0xff, 0x3f, 0x02, 0xff, 0x3f, 0x02, 0xff, 0x3f, 0x02,
   0xff, 0x3f, 0x03, 0xff, 0x1f, 0x03, 0xff, 0x8f, 0x03, 0xff, 0xe7, 0x03,
   0xff, 0xff, 0x03, 0xff, 0xff, 0x03, 0xff, 0xff, 0x03, 0xff, 0xff, 0x03};
