#define moon_full_width 18
#define moon_full_height 24
static unsigned char moon_full_bits[] = {
   0xff, 0xff, 0x03, 0xff, 0xff, 0x03, 0xff, 0xff, 0x03, 0xff, 0xff, 0x03,
   0x1f, 0xe0, 0x03, 0x07, 0x80, 0x03, 0x03, 0x00, 0x03, 0x03, 0x00, 0x03,
   0x01, 0x00, 0x02, 0x01, 0x00, 0x02, 0x01, 0x00, 0x02, 0x01, 0x00, 0x02,
   0x01, 0x00, 0x02, 0x01, 0x00, 0x02, 0x01, 0x00, 0x02, 0x01, 0x00, 0x02,
   0x03, 0x00, 0x03, 0x03, 0x00, 0x03, 0x07, 0x80, 0x03, 0x1f, 0xe0, 0x03,
   0xff, 0xff, 0x03, 0xff, 0xff, 0x03, 0xff, 0xff, 0x03, 0xff, 0xff, 0x03};
