#define moon-half-asc-18x24_width 18
#define moon-half-asc-18x24_height 24
static unsigned char moon-half-asc-18x24_bits[] = {
   0x00, 0x00, 0x00, 0x00, 0x00, 0x00, 0x00, 0x00, 0x00, 0x00, 0x00, 0x00,
   0x80, 0x07, 0x00, 0x60, 0x1e, 0x00, 0x18, 0x7e, 0x00, 0x08, 0x7e, 0x00,
   0x04, 0xfe, 0x00, 0x04, 0xfe, 0x00, 0x02, 0xfe, 0x01, 0x02, 0xfe, 0x01,
   0x02, 0xfe, 0x01, 0x02, 0xfe, 0x01, 0x04, 0xfe, 0x00, 0x04, 0xfe, 0x00,
   0x08, 0x7e, 0x00, 0x18, 0x7e, 0x00, 0x60, 0x1e, 0x00, 0x80, 0x07, 0x00,
   0x00, 0x00, 0x00, 0x00, 0x00, 0x00, 0x00, 0x00, 0x00, 0x00, 0x00, 0x00};
