#define moon-new-18x24_width 18
#define moon-new-18x24_height 24
static unsigned char moon-new-18x24_bits[] = {
   0x00, 0x00, 0x00, 0x00, 0x00, 0x00, 0x00, 0x00, 0x00, 0x00, 0x00, 0x00,
   0x80, 0x07, 0x00, 0x60, 0x18, 0x00, 0x18, 0x60, 0x00, 0x08, 0x40, 0x00,
   0x04, 0x80, 0x00, 0x04, 0x80, 0x00, 0x02, 0x00, 0x01, 0x02, 0x00, 0x01,
   0x02, 0x00, 0x01, 0x02, 0x00, 0x01, 0x04, 0x80, 0x00, 0x04, 0xc0, 0x00,
   0x08, 0x40, 0x00, 0x18, 0x60, 0x00, 0x60, 0x18, 0x00, 0x80, 0x07, 0x00,
   0x00, 0x00, 0x00, 0x00, 0x00, 0x00, 0x00, 0x00, 0x00, 0x00, 0x00, 0x00};
